<?xml version="1.0" encoding="utf-8"?>
<!-- Generator: Adobe Illustrator 22.0.1, SVG Export Plug-In . SVG Version: 6.00 Build 0)  -->
<svg version="1.1" id="Layer_1" xmlns="http://www.w3.org/2000/svg" xmlns:xlink="http://www.w3.org/1999/xlink" x="0px" y="0px"
	 viewBox="0 0 328 112" style="enable-background:new 0 0 328 112;" xml:space="preserve">
<style type="text/css">
	.st0{fill:#FFFFFF;}
	.st1{fill:#F17422;}
</style>
<g>
	<path class="st0" d="M83.1,72.6C77.5,81.8,67.4,88,55.8,88c-17.7,0-32-14.3-32-32c0-17.7,14.3-32,32-32c11.5,0,21.5,6,27.2,15.1
		h-9.1c-4.5-4.8-10.9-7.9-18.1-7.9C42.1,31.2,31,42.4,31,56s11.1,24.8,24.8,24.8c7.3,0,13.8-3.1,18.3-8.1H83.1z M55.8,32.8
		C43,32.8,32.5,43.2,32.5,56S43,79.2,55.8,79.2C68.6,79.2,79,68.8,79,56S68.6,32.8,55.8,32.8z M80.5,56c0,5.7-1.9,10.9-5.2,15.1H84
		c2.4-4.5,3.8-9.6,3.8-15.1c0-5.6-1.4-10.8-3.9-15.4h-8.7C78.5,44.8,80.5,50.2,80.5,56z"/>
	<path class="st1" d="M75.8,56.2v0.6v7v0.1l-19.9-8.8L35.8,64l0-0.2l0,0v-0.1v-6.8v-0.7h1.6L55.9,48l18.5,8.2H75.8z M67.8,52.2
		L67.8,52.2l6.6,3h1.4v-3H67.8z"/>
</g>
<g>
	<path class="st0" d="M125.6,60c-0.1,1.4-0.4,2.6-1,3.8c-0.5,1.2-1.2,2.2-2.1,3c-0.9,0.9-2,1.5-3.3,2c-1.3,0.5-2.8,0.7-4.6,0.7
		c-1.9,0-3.7-0.3-5.1-1c-1.5-0.6-2.7-1.6-3.7-2.7c-1-1.2-1.7-2.6-2.2-4.3c-0.5-1.7-0.8-3.5-0.8-5.5c0-2.1,0.3-4,0.8-5.6
		c0.6-1.7,1.3-3.1,2.4-4.2c1-1.2,2.3-2.1,3.7-2.7c1.5-0.6,3.1-0.9,5-0.9c1.6,0,3.1,0.2,4.3,0.6c1.2,0.4,2.2,1,3.1,1.8
		c0.8,0.8,1.5,1.7,2,2.8s0.9,2.3,1.1,3.6l-5.3,0.7c-0.3-1.5-0.8-2.7-1.5-3.6c-0.8-0.9-2-1.3-3.6-1.3c-2.1,0-3.6,0.8-4.7,2.3
		c-1.1,1.5-1.6,3.7-1.6,6.6c0,2.9,0.6,5.1,1.7,6.6c1.1,1.5,2.7,2.3,4.6,2.3c1.7,0,2.9-0.4,3.7-1.3c0.8-0.9,1.3-2.1,1.5-3.7H125.6z"
		/>
	<path class="st0" d="M141,66.5c-0.7,0.8-1.6,1.5-2.5,2.1c-0.9,0.5-2.1,0.8-3.6,0.8c-0.8,0-1.6-0.1-2.4-0.3s-1.4-0.6-2-1
		c-0.6-0.5-1-1-1.4-1.7c-0.3-0.7-0.5-1.6-0.5-2.5c0-1.3,0.3-2.4,0.9-3.2c0.6-0.8,1.3-1.5,2.3-1.9c0.9-0.5,2-0.8,3.1-1
		c1.2-0.2,2.3-0.3,3.5-0.4l2.4-0.1v-0.9c0-1.2-0.3-1.9-1-2.4c-0.6-0.4-1.4-0.6-2.2-0.6c-2,0-3.1,0.8-3.4,2.3l-4.6-0.4
		c0.3-2,1.2-3.4,2.6-4.3c1.4-0.9,3.3-1.3,5.6-1.3c1.4,0,2.7,0.2,3.7,0.5c1,0.3,1.8,0.8,2.4,1.5c0.6,0.6,1.1,1.4,1.3,2.4
		c0.3,0.9,0.4,2,0.4,3.1v11.9H141V66.5z M140.9,60.5l-2.2,0.1c-1.1,0-1.9,0.2-2.6,0.3c-0.6,0.2-1.1,0.4-1.5,0.6
		c-0.3,0.3-0.6,0.5-0.7,0.9c-0.1,0.3-0.2,0.7-0.2,1.1c0,0.6,0.2,1.1,0.6,1.5s1,0.5,1.8,0.5c1.3,0,2.4-0.3,3.2-0.9
		c0.5-0.3,0.8-0.8,1.1-1.3c0.3-0.5,0.4-1.2,0.4-1.9V60.5z"/>
	<path class="st0" d="M154.6,62.9c0.2,1.1,0.6,1.8,1.3,2.2c0.7,0.3,1.6,0.5,2.6,0.5c1.2,0,2.1-0.1,2.6-0.5c0.5-0.3,0.8-0.8,0.8-1.5
		c0-0.5-0.2-0.9-0.5-1.3c-0.3-0.4-0.9-0.6-1.9-0.8l-2.6-0.4c-2.3-0.4-4-1-5.1-1.9c-1.1-0.9-1.7-2.2-1.7-4c0-0.9,0.2-1.7,0.6-2.4
		c0.4-0.7,1-1.3,1.7-1.8c0.7-0.5,1.6-0.9,2.6-1.2c1-0.3,2.1-0.4,3.3-0.4c1.5,0,2.7,0.2,3.7,0.5c1,0.3,1.8,0.7,2.5,1.2
		c0.6,0.5,1.1,1.1,1.4,1.8c0.3,0.7,0.6,1.4,0.7,2.2l-4.5,0.6c-0.2-0.9-0.6-1.5-1.1-1.9c-0.5-0.4-1.4-0.6-2.6-0.6
		c-0.7,0-1.2,0.1-1.7,0.2s-0.8,0.2-1,0.4s-0.4,0.4-0.5,0.6c-0.1,0.2-0.2,0.4-0.2,0.6c0,0.6,0.2,1,0.6,1.3c0.4,0.3,1.1,0.5,2.2,0.7
		l2.4,0.4c1.3,0.2,2.4,0.5,3.3,0.8c0.9,0.3,1.6,0.8,2.1,1.2c0.5,0.5,0.9,1.1,1.1,1.7s0.3,1.5,0.3,2.3c0,1.8-0.7,3.2-2,4.3
		c-1.3,1.1-3.4,1.6-6.2,1.6c-1.1,0-2.2-0.1-3.2-0.3c-1-0.2-1.9-0.6-2.7-1.1c-0.8-0.5-1.5-1.2-2-2c-0.5-0.8-0.8-1.9-0.9-3.2H154.6z"
		/>
	<path class="st0" d="M171.2,43.1h5v9.3c0.7-1,1.6-1.8,2.6-2.2c1-0.5,2-0.7,3.1-0.7c2.1,0,3.7,0.6,4.8,1.7c1,1.1,1.5,2.9,1.5,5.3
		v12.4h-5V57.1c0-1.3-0.3-2.2-0.8-2.7c-0.5-0.5-1.2-0.7-2-0.7c-0.6,0-1.2,0.1-1.7,0.3c-0.5,0.2-0.9,0.5-1.3,0.8
		c-0.3,0.3-0.6,0.7-0.8,1.2c-0.2,0.5-0.3,1-0.3,1.5v11.3h-5V43.1z"/>
	<path class="st0" d="M210.6,63c-0.3,2.1-1.2,3.7-2.5,4.8s-3.3,1.6-5.9,1.6c-3.1,0-5.5-0.9-7-2.6c-1.6-1.7-2.4-4.2-2.4-7.3
		c0-1.6,0.2-3,0.7-4.2c0.5-1.2,1.1-2.3,1.9-3.2c0.8-0.9,1.8-1.5,3-2c1.2-0.4,2.4-0.7,3.8-0.7c2.9,0,5,0.8,6.5,2.5
		c1.5,1.7,2.2,3.9,2.2,6.7v2h-13c0,1.5,0.4,2.7,1.2,3.5c0.7,0.9,1.8,1.3,3.2,1.3c2,0,3.2-0.8,3.5-2.5H210.6z M205.9,57.4
		c0-1.3-0.3-2.3-1-3c-0.6-0.7-1.6-1.1-3-1.1c-0.7,0-1.3,0.1-1.8,0.3c-0.5,0.2-0.9,0.5-1.3,0.9s-0.6,0.8-0.8,1.3
		c-0.2,0.5-0.3,1-0.3,1.6H205.9z"/>
	<path class="st0" d="M219.1,62.9c0.2,1.1,0.6,1.8,1.3,2.2c0.7,0.3,1.6,0.5,2.6,0.5c1.2,0,2.1-0.1,2.6-0.5c0.5-0.3,0.8-0.8,0.8-1.5
		c0-0.5-0.2-0.9-0.5-1.3c-0.3-0.4-0.9-0.6-1.9-0.8l-2.6-0.4c-2.3-0.4-4-1-5.1-1.9c-1.1-0.9-1.7-2.2-1.7-4c0-0.9,0.2-1.7,0.6-2.4
		c0.4-0.7,1-1.3,1.7-1.8c0.7-0.5,1.6-0.9,2.6-1.2c1-0.3,2.1-0.4,3.3-0.4c1.5,0,2.7,0.2,3.7,0.5c1,0.3,1.8,0.7,2.5,1.2
		s1.1,1.1,1.4,1.8c0.3,0.7,0.6,1.4,0.7,2.2l-4.5,0.6c-0.2-0.9-0.6-1.5-1.1-1.9c-0.5-0.4-1.4-0.6-2.6-0.6c-0.7,0-1.2,0.1-1.7,0.2
		c-0.4,0.1-0.8,0.2-1,0.4s-0.4,0.4-0.5,0.6c-0.1,0.2-0.2,0.4-0.2,0.6c0,0.6,0.2,1,0.6,1.3c0.4,0.3,1.1,0.5,2.2,0.7l2.4,0.4
		c1.3,0.2,2.4,0.5,3.3,0.8c0.9,0.3,1.6,0.8,2.1,1.2c0.5,0.5,0.9,1.1,1.1,1.7c0.2,0.7,0.3,1.5,0.3,2.3c0,1.8-0.7,3.2-2,4.3
		c-1.3,1.1-3.4,1.6-6.2,1.6c-1.1,0-2.2-0.1-3.2-0.3c-1-0.2-1.9-0.6-2.7-1.1c-0.8-0.5-1.5-1.2-2-2c-0.5-0.8-0.8-1.9-0.9-3.2H219.1z"
		/>
	<path class="st0" d="M236.9,54h-3v-3.9h3v-5h5v5h4.3V54h-4.3v8.7c0,1,0.2,1.7,0.6,2c0.4,0.3,0.9,0.5,1.6,0.5c0.3,0,0.7,0,1-0.1
		s0.7-0.1,1-0.2l0.7,3.7c-0.7,0.2-1.4,0.4-2,0.4c-0.7,0.1-1.3,0.1-1.9,0.1c-2.1,0-3.6-0.5-4.6-1.5c-1-1-1.5-2.6-1.5-5V54z"/>
	<path class="st0" d="M261.4,66.5c-0.7,0.8-1.6,1.5-2.5,2.1c-0.9,0.5-2.1,0.8-3.6,0.8c-0.8,0-1.6-0.1-2.4-0.3s-1.4-0.6-2-1
		s-1-1-1.3-1.7c-0.3-0.7-0.5-1.6-0.5-2.5c0-1.3,0.3-2.4,0.9-3.2s1.3-1.5,2.3-1.9c0.9-0.5,2-0.8,3.2-1c1.2-0.2,2.3-0.3,3.5-0.4
		l2.4-0.1v-0.9c0-1.2-0.3-1.9-1-2.4s-1.4-0.6-2.2-0.6c-2,0-3.1,0.8-3.4,2.3l-4.6-0.4c0.3-2,1.2-3.4,2.6-4.3c1.4-0.9,3.3-1.3,5.6-1.3
		c1.4,0,2.7,0.2,3.7,0.5c1,0.3,1.8,0.8,2.4,1.5c0.6,0.6,1.1,1.4,1.3,2.4c0.3,0.9,0.4,2,0.4,3.1v11.9h-4.8V66.5z M261.3,60.5
		l-2.2,0.1c-1.1,0-1.9,0.2-2.6,0.3c-0.6,0.2-1.1,0.4-1.5,0.6s-0.6,0.5-0.7,0.9c-0.1,0.3-0.2,0.7-0.2,1.1c0,0.6,0.2,1.1,0.6,1.5
		s1,0.5,1.8,0.5c1.3,0,2.4-0.3,3.2-0.9c0.5-0.3,0.8-0.8,1.1-1.3c0.3-0.5,0.4-1.2,0.4-1.9V60.5z"/>
	<path class="st0" d="M272.5,54h-3v-3.9h3v-5h5v5h4.3V54h-4.3v8.7c0,1,0.2,1.7,0.6,2c0.4,0.3,0.9,0.5,1.6,0.5c0.3,0,0.7,0,1-0.1
		c0.3,0,0.7-0.1,1-0.2l0.7,3.7c-0.7,0.2-1.4,0.4-2,0.4c-0.7,0.1-1.3,0.1-1.9,0.1c-2.1,0-3.6-0.5-4.6-1.5c-1-1-1.5-2.6-1.5-5V54z"/>
	<path class="st0" d="M303.1,63c-0.3,2.1-1.2,3.7-2.5,4.8s-3.3,1.6-5.9,1.6c-3.1,0-5.5-0.9-7-2.6c-1.6-1.7-2.4-4.2-2.4-7.3
		c0-1.6,0.2-3,0.7-4.2c0.5-1.2,1.1-2.3,1.9-3.2c0.8-0.9,1.8-1.5,3-2c1.2-0.4,2.4-0.7,3.8-0.7c2.9,0,5,0.8,6.5,2.5
		c1.5,1.7,2.2,3.9,2.2,6.7v2h-13c0,1.5,0.4,2.7,1.2,3.5c0.7,0.9,1.8,1.3,3.2,1.3c2,0,3.2-0.8,3.5-2.5H303.1z M298.5,57.4
		c0-1.3-0.3-2.3-1-3c-0.6-0.7-1.6-1.1-3-1.1c-0.7,0-1.3,0.1-1.8,0.3c-0.5,0.2-0.9,0.5-1.3,0.9s-0.6,0.8-0.8,1.3
		c-0.2,0.5-0.3,1-0.3,1.6H298.5z"/>
</g>
</svg>
