<?xml version="1.0" encoding="utf-8"?>
<!-- Generator: Adobe Illustrator 22.0.1, SVG Export Plug-In . SVG Version: 6.00 Build 0)  -->
<svg version="1.1" id="Layer_1" xmlns="http://www.w3.org/2000/svg" xmlns:xlink="http://www.w3.org/1999/xlink" x="0px" y="0px"
	 viewBox="0 0 112 112" style="enable-background:new 0 0 112 112;" xml:space="preserve">
<style type="text/css">
	.st0{fill:#17223C;}
	.st1{fill:#F17422;}
</style>
<g>
	<path class="st0" d="M83.4,72.6C77.7,81.8,67.6,88,56,88c-17.7,0-32-14.3-32-32s14.3-32,32-32c11.5,0,21.5,6,27.2,15.1h-9.1
		c-4.5-4.8-10.9-7.9-18.1-7.9c-13.6,0-24.8,11.1-24.8,24.8S42.4,80.8,56,80.8c7.3,0,13.8-3.1,18.3-8.1h9.1V72.6z M56,32.8
		c-12.8,0-23.2,10.4-23.2,23.2S43.2,79.2,56,79.2S79.2,68.8,79.2,56S68.8,32.8,56,32.8z M80.8,56c0,5.7-1.9,10.9-5.2,15.1h8.6
		C86.6,66.6,88,61.5,88,56c0-5.6-1.4-10.8-3.9-15.4h-8.7C78.7,44.8,80.8,50.2,80.8,56z"/>
	<path class="st1" d="M74.6,56.2L56.1,48l-18.5,8.2H36v0.7v6.9l0,0l0,0l0.1,0.2l20-8.9L76,63.9v-0.1v-7v-0.6H74.6z M68,52.2L68,52.2
		l6.6,3H76v-3H68z"/>
</g>
</svg>
