<?xml version="1.0" encoding="utf-8"?>
<!-- Generator: Adobe Illustrator 22.0.1, SVG Export Plug-In . SVG Version: 6.00 Build 0)  -->
<svg version="1.1" id="Layer_1" xmlns="http://www.w3.org/2000/svg" xmlns:xlink="http://www.w3.org/1999/xlink" x="0px" y="0px"
	 viewBox="0 0 64 64" style="enable-background:new 0 0 64 64;" xml:space="preserve">
<style type="text/css">
	.st0{fill:#FFFFFF;}
	.st1{fill:#F17422;}
</style>
<g>
	<path class="st0" d="M59.3,48.6C53.7,57.8,43.6,64,32,64C14.3,64,0,49.7,0,32S14.3,0,32,0c11.5,0,21.5,6,27.2,15.1h-9.1
		C45.6,10.3,39.2,7.2,32,7.2C18.3,7.2,7.2,18.4,7.2,32S18.3,56.8,32,56.8c7.3,0,13.8-3.1,18.3-8.1h9V48.6z M32,8.8
		C19.2,8.8,8.7,19.2,8.7,32S19.2,55.2,32,55.2S55.2,44.8,55.2,32S44.8,8.8,32,8.8z M56.7,32c0,5.7-1.9,10.9-5.2,15.1h8.7
		C62.6,42.6,64,37.5,64,32c0-5.6-1.4-10.8-3.9-15.4h-8.7C54.7,20.8,56.7,26.2,56.7,32z"/>
	<path class="st1" d="M52,32.2v0.6v7v0.1l-19.9-8.8L12,40v-0.2l0,0v-0.1v-6.8v-0.7h1.6L32.1,24l18.5,8.2H52z M44,28.2L44,28.2l6.6,3
		H52v-3H44z"/>
</g>
</svg>
