<?xml version="1.0" encoding="UTF-8"?>
<svg width="500px" height="387px" viewBox="0 0 500 387" version="1.1" xmlns="http://www.w3.org/2000/svg" xmlns:xlink="http://www.w3.org/1999/xlink">
    <!-- Generator: Sketch 52.2 (67145) - http://www.bohemiancoding.com/sketch -->
    <title>7-excellent-customer-service-cashestate</title>
    <desc>Created with Sketch.</desc>
    <defs>
        <linearGradient x1="50%" y1="100%" x2="50%" y2="0.00386996904%" id="linearGradient-1">
            <stop stop-color="#808080" stop-opacity="0.25" offset="0%"></stop>
            <stop stop-color="#808080" stop-opacity="0.12" offset="54%"></stop>
            <stop stop-color="#808080" stop-opacity="0.1" offset="100%"></stop>
        </linearGradient>
        <linearGradient x1="49.9968894%" y1="99.9831564%" x2="49.9968894%" y2="0%" id="linearGradient-2">
            <stop stop-color="#808080" stop-opacity="0.25" offset="0%"></stop>
            <stop stop-color="#808080" stop-opacity="0.12" offset="54%"></stop>
            <stop stop-color="#808080" stop-opacity="0.1" offset="100%"></stop>
        </linearGradient>
        <radialGradient cx="50%" cy="-23.2760249%" fx="50%" fy="-23.2760249%" r="100%" gradientTransform="translate(0.500000,-0.232760),scale(0.773256,1.000000),rotate(90.000000),scale(1.000000,1.913215),translate(-0.500000,0.232760)" id="radialGradient-3">
            <stop stop-color="#FFCE00" offset="0%"></stop>
            <stop stop-color="#F17422" offset="100%"></stop>
        </radialGradient>
        <path d="M233.10402,209 L250.89598,209 C293.479354,209 328,243.480449 328,286.014238 L328,342 L156,342 L156,286.014238 C156,243.480449 190.520646,209 233.10402,209 Z" id="path-4"></path>
        <filter x="-14.5%" y="-17.3%" width="129.1%" height="137.6%" filterUnits="objectBoundingBox" id="filter-5">
            <feMorphology radius="0.5" operator="dilate" in="SourceAlpha" result="shadowSpreadOuter1"></feMorphology>
            <feOffset dx="0" dy="2" in="shadowSpreadOuter1" result="shadowOffsetOuter1"></feOffset>
            <feGaussianBlur stdDeviation="7.5" in="shadowOffsetOuter1" result="shadowBlurOuter1"></feGaussianBlur>
            <feColorMatrix values="0 0 0 0 0.945098039   0 0 0 0 0.454901961   0 0 0 0 0.133333333  0 0 0 0.5 0" type="matrix" in="shadowBlurOuter1"></feColorMatrix>
        </filter>
        <linearGradient x1="50%" y1="100%" x2="50%" y2="0%" id="linearGradient-6">
            <stop stop-color="#808080" stop-opacity="0.25" offset="0%"></stop>
            <stop stop-color="#808080" stop-opacity="0.12" offset="54%"></stop>
            <stop stop-color="#808080" stop-opacity="0.1" offset="100%"></stop>
        </linearGradient>
        <radialGradient cx="50%" cy="-23.2760249%" fx="50%" fy="-23.2760249%" r="100%" gradientTransform="translate(0.500000,-0.232760),scale(0.931507,1.000000),rotate(90.000000),scale(1.000000,1.913215),translate(-0.500000,0.232760)" id="radialGradient-7">
            <stop stop-color="#FFCE00" offset="0%"></stop>
            <stop stop-color="#F17422" offset="100%"></stop>
        </radialGradient>
        <path d="M72.9988233,21.9468665 L72.9988233,22.1338537 C72.9988233,22.1851244 72.9988233,22.239411 72.9988233,22.2936976 C72.9988233,22.3479842 72.9988233,22.4233823 72.9988233,22.4867166 C72.9988233,22.6405287 72.9988233,22.7883089 72.9781197,22.9511687 L72.9781197,23.0476782 C72.9781197,23.1773628 72.9633314,23.3070475 72.9515007,23.4337162 L72.9515007,23.5453054 C72.9529525,23.5653843 72.9529525,23.5855449 72.9515007,23.6056238 C72.9515007,23.7232448 72.9337548,23.8408657 72.9219241,23.9584867 C72.9100935,24.0761077 72.9012205,24.1454739 72.8923475,24.2419834 C72.8657285,24.4742094 72.8361519,24.7064354 72.80066,24.9386615 C72.7799564,25.0924735 72.7562951,25.2402537 72.7326338,25.3970817 C72.7312409,25.4080944 72.7312409,25.419244 72.7326338,25.4302568 C72.7178455,25.5056549 72.7060148,25.5810529 72.6912265,25.6594669 C72.6764382,25.7378809 72.6764382,25.7469286 72.6675652,25.7921675 C72.6586922,25.8374063 72.6675652,25.8705815 72.6439039,25.9128044 C72.6202426,25.9550273 72.6143273,26.0756642 72.5965813,26.1540781 C72.5788353,26.2324921 72.564047,26.313922 72.5463011,26.3953519 C72.5285551,26.4767818 72.5226398,26.5129729 72.5078515,26.5732913 C72.4930632,26.6336098 72.4634865,26.7753581 72.4398252,26.8748836 C72.4384415,26.8808329 72.4384415,26.8870298 72.4398252,26.8929791 L72.3865873,27.1010777 L72.3244764,27.3544152 C72.2978575,27.4569566 72.2682809,27.5594979 72.2416619,27.6560075 C72.2416619,27.6861667 72.2416619,27.7102941 72.2180006,27.7374374 L72.1292708,28.0390296 C72.0346256,28.3587173 71.9311074,28.6784051 71.8335046,28.995077 L71.7270287,29.2966692 L71.6649178,29.4625449 C70.9536346,31.3540726 69.9827155,33.1331061 68.7811976,34.7464408 C68.7102137,34.8489821 68.6333145,34.9485076 68.5593729,35.048033 C67.9967506,35.7896803 67.3892471,36.4947683 66.7404109,37.1591786 L36.4983187,68 L6.25918421,37.1591786 C5.39119408,36.2730813 4.59956596,35.3124874 3.89305475,34.2880206 C3.44658035,33.6444446 3.03580789,32.9758733 2.66266743,32.2854482 C0.616842517,28.5045045 -0.282788823,24.1895894 0.0776709893,19.8869916 C0.110205269,19.4919058 0.154570197,19.09682 0.20780811,18.7047501 C0.302453288,18.0110879 0.432590409,17.3204417 0.592304147,16.6358274 C0.624838427,16.497095 0.660330369,16.3583625 0.695822311,16.222646 C0.713568282,16.1532798 0.731314253,16.0808977 0.749060224,16.0145474 C0.766806195,15.9481971 0.769763857,15.9301016 0.781594504,15.8878787 L0.870324359,15.5862864 C0.941308243,15.3480286 1.01229213,15.1097707 1.08919133,14.8715128 L1.19862482,14.5457932 C1.35833856,14.0843571 1.52988295,13.6410165 1.7191733,13.1765645 L1.83452211,12.9081474 C1.89367535,12.7724309 1.95282859,12.6367144 2.01493949,12.5009979 C2.11549999,12.2838515 2.21901815,12.0667051 2.31070567,11.8525746 L2.33732462,11.8043199 C2.38464721,11.7047944 2.43492747,11.6113008 2.48520772,11.5027276 L2.65970976,11.1739921 C2.73365131,11.0382756 2.81055052,10.9025591 2.88744972,10.7668426 C2.92294167,10.7035082 2.96139127,10.6401739 2.99688321,10.5738236 C3.03237515,10.5074733 3.04124814,10.5044574 3.06195177,10.4652504 C3.06251443,10.4582249 3.06251443,10.4511644 3.06195177,10.4441389 C3.10927436,10.3657249 3.15659695,10.287311 3.2068772,10.208897 C3.25715745,10.130483 3.31631069,10.0309576 3.37250626,9.94349581 C3.49672806,9.74746086 3.62390752,9.55142591 3.75404464,9.35840688 L3.89305475,9.15634009 L4.06755679,8.91205038 C4.12671003,8.82458864 4.18882093,8.74014281 4.25388949,8.65569699 L4.47867179,8.35410476 C4.54965567,8.26664301 4.61768189,8.17616534 4.68570812,8.0887036 L4.75964966,7.99822593 L4.91049041,7.81123875 C4.98738962,7.71472923 5.06724649,7.62123564 5.14710336,7.52774205 L5.25062152,7.40408924 L5.2683675,7.38297778 L5.44878487,7.17789506 L5.64990587,6.95170089 C5.83919623,6.74360225 6.03440191,6.53550361 6.24143824,6.34851643 L6.47509352,6.11327449 L6.83888593,5.76342751 C6.91874279,5.68802945 6.99859966,5.61263139 7.0814142,5.54024926 C7.16422873,5.46786712 7.27070455,5.36532576 7.37718038,5.28087994 L7.56647073,5.11802014 C7.62858163,5.06071761 7.69365019,5.00643101 7.75576109,4.95516033 C7.88294055,4.84658713 8.01307767,4.74102985 8.14025713,4.6535681 L8.33546281,4.49674014 C8.66080561,4.24340267 8.98910607,3.99911296 9.32627952,3.76387102 L9.52740053,3.6251386 L9.73147919,3.4894221 L9.92372721,3.36275336 L10.2194934,3.18179802 L10.3614612,3.09433628 L10.5684975,2.97068346 C10.8465177,2.80480773 11.1245379,2.64496385 11.4055158,2.49416774 L11.5741025,2.40369007 L11.8343768,2.26797357 L12.0502861,2.15940036 L12.2661954,2.05685901 L12.4821047,1.95130173 L12.7009717,1.85177629 L12.9198386,1.75526678 C13.2156048,1.62558212 13.511371,1.50494523 13.8071372,1.39034018 L13.9993852,1.26970329 L14.2359982,1.18224154 L14.4459921,1.10684348 L14.6234519,1.04652504 L15.0316092,0.913824456 L15.2416032,0.847474165 L15.4101899,0.799219408 L15.575819,0.750964652 C15.6744077,0.720805429 15.7729964,0.693662128 15.8715851,0.66953475 L16.2619965,0.566993392 C16.6642385,0.467467956 17.0694382,0.376990287 17.4746379,0.30159223 L17.6402669,0.271433007 L17.8709645,0.232226017 L18.1075775,0.193019027 L18.4033437,0.147780192 L18.5778457,0.123652814 C18.9682571,0.0723821351 19.3586684,0.030159223 19.7609104,0 L19.9709044,0 L20.1010416,0 L20.2696283,0 L20.4175114,0 L20.4737069,0 L20.6718703,0 L20.9055256,0 L21.8431044,0 L22.0767597,0 L22.2719653,0 L22.3340762,0 L22.4819593,0 L22.5085783,0 C22.6032235,0 22.7008263,0 22.8043445,0.0180955338 L22.8368787,0.0180955338 L23.0054655,0.0180955338 C23.3189776,0.0422229121 23.6324898,0.0753980574 23.9430443,0.111589125 L24.3630322,0.168891649 L24.6587984,0.211114561 L24.8924537,0.250321551 L25.126109,0.28952854 L25.2799074,0.316671841 C25.6841212,0.393075206 26.0863632,0.480536952 26.4866334,0.579057081 L26.9776053,0.708741739 L27.1136577,0.747948729 L27.3236517,0.808267175 C27.4597042,0.847474165 27.5957566,0.886681155 27.7288514,0.931919989 L27.9063111,0.989222513 C28.2020773,1.0817108 28.4978435,1.18224154 28.7936097,1.29081474 L28.9947307,1.3662128 L29.2579626,1.46875416 L29.6542893,1.63161396 C29.8080877,1.69796425 29.9500554,1.76431454 30.1068115,1.83368076 L30.2842712,1.91209474 L30.5267995,2.0297157 L30.7427088,2.13225706 L30.9556605,2.24083027 L31.2248077,2.37956269 L31.4377593,2.49416774 C31.6033884,2.58464541 31.7690175,2.67512308 31.9316889,2.77163259 L32.1387252,2.89226948 C32.3812535,3.03401783 32.6178664,3.19386171 32.8544794,3.33561006 L33.0467274,3.4622788 L33.250806,3.5979953 L33.451927,3.73672772 L33.5850218,3.83022132 C33.880788,4.03228811 34.1499352,4.24340267 34.4279554,4.46054908 L34.6231611,4.61737703 C34.7503406,4.71991839 34.8804777,4.82547567 35.0076572,4.91896926 C35.0697681,4.97023994 35.1348366,5.02452654 35.1969475,5.08182907 L35.3862379,5.24468887 L35.6820041,5.50405819 C35.7648186,5.57644032 35.8446755,5.65183838 35.9245323,5.72723644 L36.2646634,6.09517896 L36.4983187,6.3304209 L36.7349317,6.09517896 L37.0957664,5.74533197 C37.1756233,5.66993392 37.2554802,5.59453586 37.3382947,5.52215372 C37.4211092,5.44977159 37.527585,5.34723023 37.6340609,5.26278441 L37.8233512,5.0999246 C37.8854621,5.04262208 37.9505307,4.98833548 38.0126416,4.9370648 C38.139821,4.8284916 38.2699582,4.72293431 38.3971376,4.63547257 L38.5923433,4.47864461 C38.9176861,4.22530714 39.2459866,3.98101743 39.58316,3.74577549 L39.784281,3.60704307 L39.9883597,3.47132656 L40.1806077,3.34465783 L40.4615856,3.16370249 L40.6035533,3.07624074 L40.8105897,2.95258793 C41.0886099,2.7867122 41.3666301,2.62686832 41.647608,2.4760722 L41.8161947,2.38559454 L42.0764689,2.24987803 L42.2923782,2.14130483 L42.5082876,2.03876347 L42.7241969,1.93320619 L42.9430638,1.83368076 L43.1619308,1.73717124 C43.457697,1.60748658 43.7534632,1.48684969 44.0492294,1.37224464 C44.1202133,1.34510134 44.1941548,1.31494212 44.2680963,1.29081474 L44.5017516,1.203353 L44.7147033,1.12795494 L44.8892053,1.06763649 L45.2973627,0.934935912 L45.5073566,0.868585621 L45.6759434,0.820330864 L45.8415724,0.772076108 C45.9391753,0.741916885 46.0367781,0.714773584 46.1373386,0.690646206 L46.5247923,0.588104848 C46.9270343,0.488579412 47.332234,0.398101743 47.7374337,0.322703686 L47.9030627,0.292544463 L48.1337604,0.253337473 L48.3703733,0.214130483 L48.6661395,0.168891649 L48.8406415,0.14476427 C49.2310529,0.0934935912 49.6214642,0.051270679 50.0237063,0.0211114561 L50.2337002,0.0211114561 L50.3638374,0.0211114561 L50.5324241,0.0211114561 L50.6773495,0.0211114561 L50.7365028,0.0211114561 L50.9317084,0.0211114561 L51.1653637,0.0211114561 L52.1029425,0.0211114561 L52.3365978,0.0211114561 L52.5318035,0.0211114561 L52.5939144,0.0211114561 L52.7417975,0.0211114561 L52.7447551,0.0211114561 C52.8394003,0.0211114561 52.9370032,0.0211114561 53.0405213,0.0392069898 L53.0730556,0.0392069898 L53.2416423,0.0392069898 C53.5551545,0.0633343682 53.8686666,0.0965095135 54.1792211,0.132700581 L54.5992091,0.190003105 L54.8949753,0.232226017 L55.1286306,0.271433007 L55.3622859,0.310639996 L55.5160843,0.337783297 C55.9202981,0.414186662 56.3225401,0.501648409 56.7228103,0.600168537 L57.2137822,0.729853196 L57.3498346,0.769060185 L57.5598286,0.829378631 C57.695881,0.868585621 57.8319335,0.907792611 57.9679859,0.953031445 L58.142488,1.01033397 C58.4382542,1.10382756 58.7340203,1.20636892 59.0297865,1.3119262 L59.2279499,1.38732426 L59.4911818,1.48986561 L59.8875085,1.65272542 C60.0413069,1.71907571 60.1832746,1.785426 60.3400307,1.85479221 L60.5174904,1.93320619 L60.7600187,2.05082716 L60.975928,2.15336852 L61.1888797,2.26194172 L61.4580269,2.40067415 L61.6739362,2.51527919 C61.8366076,2.60575686 62.0022367,2.69623453 62.1649081,2.79274405 L62.3719444,2.91338094 C62.6144727,3.05512929 62.8540433,3.21497317 63.0876985,3.35672152 L63.2799466,3.48339025 L63.4840252,3.61910675 L63.6851462,3.75783918 L63.6999345,3.75783918 L63.8330293,3.85133277 C64.1287955,4.05339957 64.3979427,4.26451413 64.6759629,4.48166053 L64.8711686,4.63848849 C64.9983481,4.74102985 65.1284852,4.84658713 65.2556647,4.94008072 C65.3177756,4.9913514 65.3828441,5.045638 65.444955,5.10294052 L65.6342454,5.26580033 L65.8797313,5.48897858 C65.9625458,5.56437664 66.0453604,5.63977469 66.1252172,5.71818867 L66.2642273,5.84787333 C66.2718532,5.85413057 66.2787946,5.8612087 66.284931,5.86898479 C66.3647879,5.94136692 66.4416871,6.0197809 66.5215439,6.09517896 L66.6280198,6.20073624 C66.669427,6.24597507 66.7108343,6.28819799 66.7551992,6.3304209 L66.9888545,6.5747106 C67.107161,6.69836342 67.2254674,6.82503216 67.3408163,6.95471681 C67.4088425,7.02709895 67.4768687,7.10249701 67.5419373,7.17789506 C67.6543284,7.3045638 67.7637619,7.43123254 67.8731954,7.5609172 L68.2221995,7.98616224 C68.6214838,8.48680534 68.9941492,8.99951213 69.346111,9.52428261 L69.4880787,9.74444494 C69.5413167,9.82285892 69.5886392,9.9012729 69.6389195,9.97968688 L69.766099,10.1817537 C69.8370828,10.2993746 69.9080667,10.4139797 69.9760929,10.5316007 L70.1624256,10.8573203 C70.2008752,10.9236706 70.2393248,10.9900208 70.2748168,11.0563711 L70.360589,11.2131991 L70.4463612,11.3700271 L70.570583,11.6082849 L70.6918471,11.8465428 C70.9698673,12.4014725 71.2222545,12.9674606 71.4490085,13.544507 L71.5466114,13.7887967 C71.6382989,14.0270546 71.7240711,14.2622965 71.8068856,14.5035703 L71.8808272,14.7207167 C71.9133614,14.8232581 71.9488534,14.9257994 71.97843,15.022309 C72.0080066,15.1188185 72.0375832,15.2062802 72.0642022,15.2997738 L72.1174401,15.4746973 C72.1440591,15.5591431 72.1677204,15.6435889 72.1913817,15.7280348 C72.2150429,15.8124806 72.2475772,15.9361334 72.2771538,16.029627 C72.3215188,16.1985186 72.362926,16.3674103 72.4043333,16.5393179 L72.4664442,16.804719 C72.4960208,16.9313878 72.5226398,17.0580565 72.5492587,17.1847252 C72.5492587,17.2390118 72.5699624,17.2932984 72.581793,17.347585 C72.5936237,17.4018716 72.6113696,17.4923493 72.6232003,17.5647314 C72.6350309,17.6371136 72.6468616,17.6793365 72.6557346,17.736639 L72.6823535,17.8814033 C72.6823535,17.9266421 72.6823535,17.971881 72.7060148,18.0171198 C72.7296761,18.0623586 72.7060148,18.1045815 72.7267184,18.1498204 L72.7710834,18.4212534 C72.7710834,18.5117311 72.7947447,18.6022087 72.809533,18.6926864 C72.8243213,18.7831641 72.8361519,18.8947532 72.8479826,18.9942786 C72.8598132,19.0938041 72.8716439,19.1872976 72.8805169,19.2958708 L72.8982628,19.4617466 C72.8982628,19.561272 72.9189665,19.6607974 72.9278394,19.7633388 C72.9278394,19.8115936 72.9278394,19.8628642 72.9278394,19.911119 C72.9278394,20.0136604 72.9455854,20.1162017 72.9515007,20.2127112 C72.9531336,20.2196499 72.9531336,20.226884 72.9515007,20.2338227 C72.9515007,20.297157 72.9515007,20.3604914 72.9515007,20.4238258 L72.9515007,20.6228767 C72.9515007,20.7314499 72.9515007,20.8400231 72.966289,20.9485963 C72.966289,21.0601854 72.966289,21.1687586 72.966289,21.2833636 C73.001781,21.5186056 73.001781,21.7327361 72.9988233,21.9468665 Z" id="path-8"></path>
        <filter x="-34.2%" y="-33.8%" width="168.5%" height="174.2%" filterUnits="objectBoundingBox" id="filter-9">
            <feMorphology radius="0.5" operator="dilate" in="SourceAlpha" result="shadowSpreadOuter1"></feMorphology>
            <feOffset dx="0" dy="2" in="shadowSpreadOuter1" result="shadowOffsetOuter1"></feOffset>
            <feGaussianBlur stdDeviation="7.5" in="shadowOffsetOuter1" result="shadowBlurOuter1"></feGaussianBlur>
            <feColorMatrix values="0 0 0 0 0.945098039   0 0 0 0 0.454901961   0 0 0 0 0.133333333  0 0 0 0.5 0" type="matrix" in="shadowBlurOuter1"></feColorMatrix>
        </filter>
    </defs>
    <g id="Page-1" stroke="none" stroke-width="1" fill="none" fill-rule="evenodd">
        <g id="Cashestate-Landing-Page-Desktop" transform="translate(-84.000000, -3561.000000)">
            <g id="7-excellent-customer-service-cashestate" transform="translate(84.000000, 3561.000000)">
                <g id="Group" opacity="0.8" transform="translate(25.000000, 80.000000)" fill="url(#linearGradient-1)">
                    <path d="M430.539008,287.705328 L0.316585052,287.705328 L0.316585052,9.15706564 C0.316585052,4.30548933 4.24551715,0.372509653 9.09210052,0.372509653 L421.763492,0.372509653 C426.610076,0.372509653 430.539008,4.30548933 430.539008,9.15706564 L430.539008,287.705328 Z" id="Path"></path>
                </g>
                <path d="M40.7247545,85 L440.253103,85 C445.083881,85 449,88.9152377 449,93.7449281 L449,366 L32,366 L32.0000018,93.7504629 C31.996933,88.9272449 35.9004652,85.0122097 40.7247545,85 Z" id="Path" fill="#FFFFFF"></path>
                <rect id="Rectangle" fill="#EBEBEF" x="45" y="102" width="391" height="256"></rect>
                <rect id="Rectangle" fill="#E8E8EE" opacity="0.8" x="47" y="114" width="389" height="231"></rect>
                <rect id="Rectangle" fill="#E9E9ED" x="47" y="102" width="389" height="13"></rect>
                <circle id="Oval" fill="#D0021B" cx="55.5" cy="107.5" r="3.5"></circle>
                <circle id="Oval" fill="#FFB500" cx="63.5" cy="107.5" r="3.5"></circle>
                <circle id="Oval" fill="#7ED321" cx="71.5" cy="107.5" r="3.5"></circle>
                <g id="Group" opacity="0.8" transform="translate(0.000000, 340.000000)" fill="url(#linearGradient-2)">
                    <path d="M468.459977,45.7227059 C444.493395,47.5308235 32.9151438,46.8285882 18.5363061,45.7227059 C-0.316812428,36.6821176 0.0277905639,1.60352941 0.0277905639,1.60352941 L188.7813,0.348352941 L189.414925,11.0256471 L270.18542,11.0256471 L273.342428,1.62564706 L482.516444,1.62564706 C482.516444,1.62564706 486.673913,33.7847059 468.459977,45.7227059 Z" id="Path"></path>
                </g>
                <path d="M478.591904,346 L273.507082,346 C275.120525,347.842896 275.495619,350.446436 274.466675,352.660571 C273.43773,354.874707 271.194286,356.29158 268.727327,356.285322 L190.428276,356.285322 C187.961317,356.29158 185.717873,354.874707 184.688928,352.660571 C183.659984,350.446436 184.035078,347.842896 185.648521,346 L2,346 C2,346 1.68354522,376.235772 20.3079149,384.0513 C34.5082325,384.984333 441.037483,385.610014 464.708384,384.0513 C482.72139,373.738536 478.591904,346 478.591904,346 Z" id="Path" fill="#E8E8EE"></path>
                <circle id="Oval" fill="#E0E0E0" cx="44" cy="352" r="3"></circle>
                <circle id="Oval" fill="#E0E0E0" cx="53" cy="352" r="3"></circle>
                <circle id="Oval" fill="#E0E0E0" cx="59" cy="352" r="3"></circle>
                <g id="Path" fill-rule="nonzero">
                    <use fill="black" fill-opacity="1" filter="url(#filter-5)" xlink:href="#path-4"></use>
                    <use fill="url(#radialGradient-3)" xlink:href="#path-4"></use>
                </g>
                <circle id="Oval" fill="#17223C" cx="242.5" cy="99.5" r="78.5"></circle>
                <path d="M230.105677,185 L252.916507,185 C261.799175,185 269,192.284186 269,201.269685 L269,217.124213 C269,230.862731 257.990187,242 244.408894,242 L238.591106,242 C225.009813,242 214,230.862731 214,217.124213 L214,201.292126 C214,192.306627 221.200825,185.022441 230.083493,185.022441 L230.105677,185 Z" id="Path" fill="#000000" opacity="0.1"></path>
                <path d="M214,185 L269,185 L269,217.134002 C269,230.867114 257.995735,242 244.421286,242 L238.578714,242 C225.004265,242 214,230.867114 214,217.134002 L214,185 Z" id="Path" fill="#D7D7E1"></path>
                <path d="M214,192.393967 C231.726129,199.81057 251.238093,199.870036 269,192.561588 L269,185 L214,185 L214,192.393967 Z" id="Path" fill="#000000" opacity="0.1"></path>
                <circle id="Oval" fill="#D7D7E1" cx="242.5" cy="116.5" r="78.5"></circle>
                <circle id="Oval" fill="#000000" opacity="0.1" cx="242" cy="125" r="53"></circle>
                <circle id="Oval" fill="#D7D7E1" cx="242.5" cy="110.5" r="62.5"></circle>
                <path d="M166,88 L316,88 C316,88 303.195796,27.3358666 246.486726,31.1748078 C189.777655,35.0137489 166,88 166,88 Z" id="Path" fill="#000000" opacity="0.1"></path>
                <path d="M166,87 L316,87 C316,87 303.195796,26.3090152 246.486726,30.1773658 C189.777655,34.0457164 166,87 166,87 Z" id="Path" fill="#17223C"></path>
                <ellipse id="Oval" fill="#D7D7E1" cx="164.5" cy="113" rx="7.5" ry="14"></ellipse>
                <ellipse id="Oval" fill="#D7D7E1" cx="319.5" cy="113" rx="7.5" ry="14"></ellipse>
                <path d="M188.5,280 L188.5,342" id="Path" stroke="#000000" stroke-width="4" opacity="0.05"></path>
                <path d="M296.5,280 L296.5,342" id="Path" stroke="#000000" stroke-width="4" opacity="0.05"></path>
                <g id="Group" opacity="0.8" transform="translate(344.000000, 0.000000)" fill="url(#linearGradient-6)">
                    <polygon id="Path" points="155.498571 110.79249 56.0708571 110.79249 22.5141429 138.826948 22.5141429 110.79249 0.144857143 110.79249 0.144857143 0 155.498571 0"></polygon>
                </g>
                <rect id="Rectangle" fill="#FFFFFF" x="348" y="1" width="150" height="106"></rect>
                <g id="Group-17" transform="translate(388.000000, 21.000000)">
                    <g id="Path" fill-rule="nonzero">
                        <use fill="black" fill-opacity="1" filter="url(#filter-9)" xlink:href="#path-8"></use>
                        <use fill="url(#radialGradient-7)" xlink:href="#path-8"></use>
                    </g>
                    <path d="M72.9988358,22.2876282 L72.9988358,22.4775187 C72.9988358,22.5295854 72.9988358,22.5847149 72.9988358,22.6398444 C72.9988358,22.6949739 72.9988358,22.7715426 72.9988358,22.8358604 C72.9988358,22.9920606 72.9988358,23.1421353 72.978351,23.3075238 L72.978351,23.4055318 C72.978351,23.53723 72.963719,23.6689282 72.9520134,23.7975637 L72.9520134,23.9108855 C72.9534499,23.9312761 72.9534499,23.9517498 72.9520134,23.9721404 C72.9520134,24.0915877 72.934455,24.2110349 72.9227494,24.3304821 C72.9110438,24.4499294 72.9022647,24.5203726 72.8934855,24.6183806 C72.8671479,24.8542123 72.8378839,25.090044 72.8027672,25.3258757 C72.7822824,25.482076 72.7588712,25.6321507 72.73546,25.7914137 C72.7340819,25.8025974 72.7340819,25.8139201 72.73546,25.8251039 C72.720828,25.9016726 72.7091224,25.9782414 72.6944905,26.0578729 C72.6798585,26.1375044 72.6798585,26.1466926 72.6710793,26.1926338 C72.6623001,26.2385751 72.6710793,26.2722653 72.6476681,26.3151438 C72.6242569,26.3580223 72.6184041,26.4805323 72.6008457,26.5601638 C72.5832874,26.6397953 72.5686554,26.7224895 72.551097,26.8051837 C72.5335386,26.887878 72.5276858,26.924631 72.5130538,26.985886 C72.4984218,27.047141 72.4691579,27.1910902 72.4457467,27.2921609 C72.4443776,27.2982026 72.4443776,27.3044957 72.4457467,27.3105374 L72.3930715,27.5218671 L72.3316172,27.7791381 C72.3052796,27.8832716 72.2760156,27.9874051 72.2496781,28.085413 C72.2496781,28.1160405 72.2496781,28.1405425 72.2262669,28.1681073 L72.138475,28.4743822 C72.0448303,28.7990337 71.9424064,29.1236851 71.8458352,29.4452738 L71.7404849,29.7515488 L71.6790306,29.92 C73.7974124,20.7106841 70.0883099,11.1104916 62.4491737,6.03055379 C62.068742,5.7773665 61.6844085,5.53847204 61.2961732,5.31387041 C53.030618,0.553603488 42.7521597,2.09786731 36.0998928,9.09942881 C35.2985084,8.262797 34.4344117,7.49465576 33.515884,6.80236667 C32.8157236,6.27138636 32.0846617,5.78653443 31.3269389,5.3506234 C24.9807293,1.71186746 17.2995708,1.71186746 10.9533612,5.3506234 C9.89550826,5.95889878 8.88995147,6.66187151 7.94795126,7.45166957 C6.38573755,8.75499993 5.00655994,10.281952 3.8509951,11.9876016 C3.42971683,12.6053095 3.03901635,13.2452455 2.6804362,13.9048828 C2.68153792,13.9140349 2.68153792,13.9232955 2.6804362,13.9324475 C2.34876403,14.5480873 2.04696197,15.1808379 1.77617945,15.8282895 C1.6240068,16.1835684 1.48353973,16.5449729 1.35185185,16.9063773 C1.38404222,16.7654908 1.41915899,16.6246044 1.45427576,16.4867806 C1.47183414,16.4163374 1.48939252,16.3428314 1.50695091,16.2754509 C1.52450929,16.2080704 1.52743569,16.1896939 1.53914128,16.1468154 L1.62693319,15.8405405 C1.69716673,15.5985833 1.76740026,15.3566261 1.84348659,15.1146689 L1.95176329,14.7838919 C2.10978874,14.3152912 2.27951978,13.865067 2.4668092,13.3934036 L2.5809387,13.1208189 C2.63946664,12.9829952 2.69799459,12.8451715 2.75944893,12.7073477 C2.85894644,12.4868298 2.96137034,12.2663118 3.05208866,12.0488566 L3.07842623,11.9998526 C3.12524859,11.8987819 3.17499734,11.8038366 3.22474609,11.6935776 L3.39740353,11.3597379 C3.47056346,11.2219142 3.54664979,11.0840905 3.62273612,10.9462668 C3.65785289,10.881949 3.69589605,10.8176313 3.73101282,10.7502508 C3.76612958,10.6828703 3.77490878,10.6798076 3.79539356,10.6399918 C3.79595027,10.6328573 3.79595027,10.6256871 3.79539356,10.6185526 C3.84221591,10.5389211 3.88903827,10.4592896 3.93878702,10.3796581 C3.98853578,10.3000266 4.04706372,10.1989559 4.10266527,10.1101361 C4.22557395,9.91105743 4.35140903,9.71197871 4.48017051,9.51596274 L4.61771118,9.31075852 L4.79036862,9.06267581 C4.84889657,8.97385608 4.91035091,8.88809909 4.97473165,8.8023421 L5.19713784,8.49606715 C5.26737137,8.40724742 5.33467851,8.31536493 5.40198565,8.22654519 L5.47514558,8.13466271 L5.62439184,7.94477224 C5.70047817,7.84676425 5.77949089,7.75181902 5.85850362,7.65687378 L5.96092752,7.53130105 L5.97848591,7.50986181 L6.15699614,7.30159484 L6.35599115,7.07188863 C6.54328058,6.86055891 6.7364228,6.64922919 6.9412706,6.45933872 L7.17245599,6.22044426 L7.53240285,5.86516532 C7.61141557,5.78859658 7.6904283,5.71202784 7.77236742,5.63852185 C7.85430655,5.56501587 7.95965685,5.46088238 8.06500715,5.3751254 L8.25229657,5.20973692 C8.31375091,5.15154468 8.37813165,5.09641519 8.439586,5.04434845 C8.56542108,4.93408947 8.69418256,4.82689323 8.82001764,4.7380735 L9.01315986,4.57881052 C9.33506355,4.32153956 9.65989365,4.07345685 9.99350294,3.83456239 L10.1924979,3.69367591 L10.3944194,3.55585219 L10.5846352,3.42721671 L10.8772749,3.24345174 L11.017742,3.154632 L11.2225898,3.02905927 C11.4976711,2.86060805 11.7727525,2.69828232 12.0507602,2.54514485 L12.2175648,2.45326236 L12.4750878,2.31543863 L12.6887148,2.20517965 L12.9023418,2.10104617 L13.1159688,1.99384993 L13.3325222,1.8927792 L13.5490756,1.79477122 C13.8417153,1.66307299 14.134355,1.54056301 14.4269948,1.42417852 L14.6230634,1.28941755 L14.8571752,1.20059781 L15.0649494,1.12402907 L15.2405332,1.06277408 L15.644376,0.928013103 L15.8521502,0.860632613 L16.0189549,0.811628621 L16.1828331,0.762624629 C16.2803797,0.731997134 16.3779263,0.704432388 16.4754728,0.679930392 L16.8617573,0.575796909 C17.2597473,0.474726175 17.6606637,0.382843689 18.0615802,0.306274951 L18.2254584,0.275647456 L18.4537174,0.235831713 L18.6878292,0.196015969 L18.9804689,0.150074726 L19.1531263,0.12557273 C19.5394108,0.0735059883 19.9256952,0.0306274951 20.3236852,0 L20.5314594,0 L20.6602209,0 L20.8270256,0 L20.9733454,0 L21.028947,0 L21.2250156,0 L21.456201,0 L22.3838689,0 L22.6150543,0 L22.8081965,0 L22.8696508,0 L23.0159707,0 L23.0423083,0 C23.135953,0 23.2325241,0 23.334948,0.0183764971 L23.3671384,0.0183764971 L23.533943,0.0183764971 C23.8441411,0.0428784932 24.1543392,0.0765687378 24.4616109,0.113321732 L24.8771594,0.171513973 L25.1697991,0.214392466 L25.4009845,0.25420821 L25.6321698,0.294023953 L25.7843425,0.321588699 C26.1842835,0.399178353 26.5822735,0.487998089 26.9783126,0.588047907 L27.4640945,0.719746136 L27.5987088,0.759561879 L27.806483,0.82081687 C27.9410973,0.860632613 28.0757116,0.900448357 28.2073994,0.9463896 L28.3829833,1.00458184 C28.675623,1.09850616 28.9682627,1.20059781 29.2609024,1.31085679 L29.4598975,1.38742553 L29.7203468,1.49155901 L30.112484,1.65694749 C30.2646567,1.72432798 30.4051238,1.79170847 30.5602228,1.8621517 L30.7358067,1.94178319 L30.9757712,2.06123042 L31.1893982,2.16536391 L31.4000988,2.27562289 L31.666401,2.41650937 L31.8771016,2.53289385 C32.0409798,2.62477633 32.2048581,2.71665882 32.3658099,2.8146668 L32.5706577,2.93717678 C32.8106223,3.08112601 33.0447341,3.24345174 33.2788459,3.38740096 L33.4690617,3.51603644 L33.6709831,3.65386017 L33.8699781,3.79474665 L34.001666,3.88969188 C34.2943057,4.0948961 34.5606079,4.30928857 34.8356892,4.52980653 L35.0288314,4.68906951 C35.1546665,4.79320299 35.283428,4.90039922 35.4092631,4.99534446 C35.4707174,5.0474112 35.5350981,5.10254069 35.5965525,5.16073293 L35.7838419,5.3261214 L36.0764816,5.58951786 C36.1584208,5.66302385 36.2374335,5.73959259 36.3164462,5.81616133 L36.6529819,6.18981677 L36.8841673,6.42871123 L37.1182791,6.18981677 L37.4752995,5.83453782 C37.5543123,5.75796909 37.633325,5.68140035 37.7152641,5.60789436 C37.7972032,5.53438837 37.9025535,5.43025489 38.0079038,5.3444979 L38.1951933,5.17910943 C38.2566476,5.12091719 38.3210283,5.0657877 38.3824827,5.01372095 C38.5083178,4.90346197 38.6370792,4.79626574 38.7629143,4.707446 L38.9560565,4.54818303 C39.2779602,4.29091207 39.6027903,4.04282936 39.9363996,3.8039349 L40.1353946,3.66304842 L40.337316,3.52522469 L40.5275319,3.39658921 L40.8055396,3.21282424 L40.9460067,3.1240045 L41.1508545,2.99843177 C41.4259358,2.82998055 41.7010172,2.66765483 41.9790249,2.51451735 L42.1458295,2.42263487 L42.4033525,2.28481114 L42.6169795,2.17455215 L42.8306065,2.07041867 L43.0442335,1.96322244 L43.2607869,1.8621517 L43.4773403,1.76414372 C43.76998,1.63244549 44.0626197,1.50993551 44.3552595,1.39355103 C44.425493,1.36598628 44.4986529,1.33535879 44.5718129,1.31085679 L44.8029982,1.22203706 L45.0136988,1.14546832 L45.1863563,1.08421333 L45.5901991,0.949452349 L45.7979733,0.88207186 L45.964778,0.833067868 L46.1286562,0.784063876 C46.2252273,0.75343638 46.3217984,0.725871635 46.4212959,0.701369639 L46.804654,0.597236155 C47.202644,0.496165421 47.6035604,0.404282936 48.0044768,0.327714198 L48.1683551,0.297086703 L48.3966141,0.257270959 L48.6307259,0.217455215 L48.9233656,0.171513973 L49.096023,0.147011977 C49.4823075,0.0949452349 49.8685919,0.0520667417 50.2665819,0.0214392466 L50.4743561,0.0214392466 L50.6031176,0.0214392466 L50.7699222,0.0214392466 L50.9133157,0.0214392466 L50.9718437,0.0214392466 L51.1649859,0.0214392466 L51.3961713,0.0214392466 L52.3238392,0.0214392466 L52.5550246,0.0214392466 L52.7481668,0.0214392466 L52.8096211,0.0214392466 L52.955941,0.0214392466 L52.9588674,0.0214392466 C53.0525121,0.0214392466 53.1490832,0.0214392466 53.2515071,0.0398157437 L53.2836975,0.0398157437 L53.4505021,0.0398157437 C53.7607002,0.0643177398 54.0708983,0.0980079844 54.3781701,0.134760979 L54.7937185,0.192953219 L55.0863582,0.235831713 L55.3175436,0.275647456 L55.548729,0.3154632 L55.7009016,0.343027946 C56.1008426,0.4206176 56.4988326,0.509437336 56.8948717,0.609487153 L57.3806536,0.741185382 L57.5152679,0.781001126 L57.7230421,0.842256116 C57.8576564,0.88207186 57.9922707,0.921887604 58.1268849,0.967828846 L58.2995424,1.02602109 C58.5921821,1.12096632 58.8848218,1.22509981 59.1774615,1.33229604 L59.3735302,1.40886478 L59.6339795,1.51299826 L60.0261167,1.67838673 C60.1782894,1.74576722 60.3187565,1.81314771 60.4738555,1.88359095 L60.6494394,1.96322244 L60.8894039,2.08266967 L61.1030309,2.18680315 L61.3137315,2.29706214 L61.5800337,2.43794861 L61.7936607,2.55433309 C61.9546125,2.64621558 62.1184908,2.73809807 62.2794426,2.83610605 L62.4842904,2.95861603 C62.724255,3.10256526 62.9612932,3.26489098 63.1924786,3.40884021 L63.3826944,3.53747569 L63.5846158,3.67529942 L63.7836108,3.81618589 L63.7982428,3.81618589 L63.9299307,3.91113113 C64.2225704,4.11633535 64.4888726,4.33072781 64.7639539,4.55124578 L64.9570961,4.71050875 C65.0829312,4.81464224 65.2116927,4.92183847 65.3375278,5.0167837 C65.3989821,5.06885045 65.4633628,5.12397994 65.5248172,5.18217218 L65.7121066,5.34756065 L65.9549976,5.57420412 C66.0369367,5.65077285 66.1188758,5.72734159 66.1978886,5.80697308 L66.3354292,5.93867131 C66.3429745,5.9450257 66.3498425,5.95221373 66.355914,5.96011055 C66.4349267,6.03361654 66.5110131,6.11324803 66.5900258,6.18981677 L66.6953761,6.297013 C66.7363456,6.34295424 66.7773152,6.38583274 66.8212112,6.42871123 L67.0523966,6.67679394 C67.1694524,6.80236667 67.2865083,6.93100215 67.4006378,7.06270038 C67.467945,7.13620637 67.5352521,7.2127751 67.5996328,7.28934384 C67.7108359,7.41797932 67.8191126,7.5466148 67.9273893,7.67831303 L68.2727042,8.11016071 C68.6677678,8.61857713 69.0364939,9.13924455 69.3847352,9.67216296 L69.5252022,9.89574368 C69.5778774,9.97537517 69.6246997,10.0550067 69.6744485,10.1346381 L69.8002836,10.3398424 C69.8705171,10.4592896 69.9407506,10.5756741 70.0080578,10.6951213 L70.1924208,11.0258982 C70.230464,11.0932787 70.2685071,11.1606592 70.3036239,11.2280397 L70.3884894,11.3873027 L70.4733549,11.5465657 L70.5962636,11.7885229 L70.7162459,12.0304801 C70.9913273,12.594026 71.2410465,13.168802 71.4654036,13.7548081 L71.5619747,14.0028908 C71.652693,14.244848 71.7375586,14.4837425 71.8194977,14.7287624 L71.8926576,14.9492804 C71.924848,15.0534139 71.9599647,15.1575473 71.9892287,15.2555553 C72.0184927,15.3535633 72.0477567,15.442383 72.0740942,15.5373283 L72.1267694,15.7149678 C72.153107,15.8007247 72.1765181,15.8864817 72.1999293,15.9722387 C72.2233405,16.0579957 72.2555309,16.1835684 72.2847948,16.2785137 C72.3286908,16.4500276 72.3696604,16.6215416 72.4106299,16.7961183 L72.4720843,17.0656403 C72.5013482,17.1942758 72.5276858,17.3229112 72.5540234,17.4515467 C72.5540234,17.5066762 72.5745082,17.5618057 72.5862138,17.6169352 C72.5979193,17.6720647 72.6154777,17.7639472 72.6271833,17.8374532 C72.6388889,17.9109592 72.6505945,17.9538376 72.6593737,18.0120299 L72.6857113,18.1590419 C72.6857113,18.2049831 72.6857113,18.2509244 72.7091224,18.2968656 C72.7325336,18.3428068 72.7091224,18.3856853 72.7296072,18.4316266 L72.7735032,18.707274 C72.7735032,18.7991565 72.7969144,18.891039 72.8115463,18.9829215 C72.8261783,19.074804 72.8378839,19.1881257 72.8495895,19.2891964 C72.8612951,19.3902672 72.8730007,19.4852124 72.8817799,19.5954714 L72.8993383,19.7639226 C72.8993383,19.8649933 72.919823,19.9660641 72.9286022,20.0701976 C72.9286022,20.1192016 72.9286022,20.1712683 72.9286022,20.2202723 C72.9286022,20.3244058 72.9461606,20.4285393 72.9520134,20.5265472 C72.953629,20.5335936 72.953629,20.5409401 72.9520134,20.5479865 C72.9520134,20.6123042 72.9520134,20.676622 72.9520134,20.7409397 L72.9520134,20.9430812 C72.9520134,21.0533402 72.9520134,21.1635991 72.9666454,21.2738581 C72.9666454,21.3871799 72.9666454,21.4974388 72.9666454,21.6138233 C73.0017622,21.8527178 73.0017622,22.070173 72.9988358,22.2876282 Z" id="Path" fill="#000000" opacity="0.1"></path>
                </g>
                <polygon id="Path" fill="#FFFFFF" points="372 103.818182 372 132 403 101"></polygon>
            </g>
        </g>
    </g>
</svg>